PathFileType	4	(X/Y/Z)	D:\TRACE\spot_10-12-23\spot_body_motion_3_3-platform.trc
DataRate	CameraRate	NumFrames	NumMarkers	Units	OrigDataRate	OrigDataStartFrame	OrigNumFrames
100.00	100.00	      67	5	mm	100.00	4376	      7000
Frame#	Time	Left_Front			Right_Front			Left_Aft			Right_Aft			Post			
		X1	Y1	Z1	X2	Y2	Z2	X3	Y3	Z3	X4	Y4	Z4	X5	Y5	Z5	

4376	43.750	-761.64526	-44.19911	-651.76093	810.54004	-38.96588	-644.92010	-679.15057	39.13448	483.24930	738.31671	50.42196	568.99054	20.83861	667.57312	-1025.00208	
4377	43.760	-761.74554	-43.61757	-651.71478	810.50751	-38.41269	-644.71631	-679.15143	38.84812	483.61084	738.30084	49.92260	569.08453	20.86187	668.60120	-1024.41394	
4378	43.770	-761.74677	-43.05949	-651.50031	810.57935	-37.98418	-644.68329	-679.06165	38.51060	483.62817	738.41400	49.49811	569.30078	20.85399	669.29724	-1023.88489	
4379	43.780	-761.69299	-42.64602	-651.39063	810.62030	-37.58085	-644.61224	-679.03119	38.08144	483.55923	738.51196	49.19177	569.45770	20.82539	669.66260	-1023.53217	
4380	43.790	-761.54797	-42.20406	-651.35535	810.78033	-37.01299	-644.47845	-678.95490	37.76857	483.69595	738.62646	48.88186	569.66364	20.92511	670.79266	-1022.78436	
4381	43.800	-761.67633	-41.54253	-651.19836	810.86267	-36.34298	-644.41937	-678.94629	37.53807	483.78625	738.73846	48.44659	569.90247	20.97729	671.76178	-1021.76984	
4382	43.810	-761.37616	-41.10214	-651.27991	810.94293	-35.86682	-644.14264	-678.91223	37.11630	483.98016	738.79980	47.95752	569.97052	21.05494	672.51410	-1021.31976	
4383	43.820	-761.56476	-40.40876	-650.92218	810.83594	-35.31179	-644.11615	-678.85114	36.65265	484.27213	738.84442	47.53744	570.01672	21.02603	673.34814	-1020.66040	
4384	43.830	-761.46661	-39.98471	-651.02362	810.69623	-34.68708	-644.21948	-678.89075	36.34982	484.39374	738.75726	47.00301	570.20581	20.90136	674.36273	-1019.76172	
4385	43.840	-761.62701	-39.16625	-650.81653	810.97736	-34.31015	-643.93213	-678.80914	36.07933	484.52625	738.62842	46.52963	570.41211	20.84500	675.26727	-1019.06390	
4386	43.850	-761.68420	-38.28994	-650.56537	811.04987	-33.41471	-643.74402	-678.80212	35.62731	484.76151	738.63794	46.05164	570.59033	20.99203	676.06683	-1018.49689	
4387	43.860	-761.91205	-37.47387	-650.32281	810.84863	-32.66819	-643.86377	-678.72260	35.08943	484.85556	738.60919	45.59786	570.67902	21.14340	677.40881	-1017.33966	
4388	43.870	-761.96356	-36.94156	-650.27856	810.70148	-32.12409	-643.93372	-678.79889	34.55122	485.01047	738.60272	45.01850	570.90845	21.06242	678.25031	-1016.61865	
4389	43.880	-761.79688	-36.61159	-650.20471	810.88721	-31.35564	-643.75494	-678.82343	34.10027	485.15063	738.54041	44.44833	571.19763	21.22035	679.41718	-1015.98950	
4390	43.890	-761.30151	-36.04536	-650.20203	811.17145	-30.72878	-643.28101	-678.89801	33.74974	485.35556	738.46240	43.76361	571.45282	21.12215	680.50720	-1014.95398	
4391	43.900	-761.63824	-34.75681	-650.04517	810.91687	-29.99969	-643.32477	-678.88354	33.18261	485.86673	738.45496	43.23046	571.62280	21.11713	681.49756	-1013.96643	
4392	43.910	-761.62402	-34.43810	-650.06702	810.64417	-29.22985	-643.43762	-679.05872	32.66500	485.83344	738.38965	42.73780	571.78650	21.28420	682.73895	-1013.08759	
4393	43.920	-761.74170	-33.77569	-649.86261	810.75275	-28.41923	-643.03894	-679.04785	32.26409	486.02484	738.18451	42.13295	572.08362	21.07326	683.92657	-1012.02466	
4394	43.930	-762.09973	-32.66917	-649.67847	810.55219	-27.69064	-642.78131	-679.24951	31.78884	486.63138	737.98456	41.46456	572.24738	20.76110	685.17859	-1011.20605	
4395	43.940	-762.06232	-32.27147	-649.62640	810.30865	-26.95106	-642.73230	-679.50964	31.19167	486.71249	737.82440	40.88590	572.40137	20.27564	686.36755	-1009.99207	
4396	43.950	-762.29785	-31.14635	-649.58704	810.08014	-26.10083	-642.61694	-679.71246	30.60230	486.67953	737.69092	40.33688	572.68304	20.28108	687.49597	-1008.85730	
4397	43.960	-762.28870	-30.56308	-649.52301	810.07568	-25.27293	-642.37830	-679.70856	30.07703	486.94031	737.37646	39.45449	572.91400	19.96576	688.96246	-1007.60870	
4398	43.970	-762.41663	-29.68466	-649.48206	809.74023	-24.46537	-642.39746	-679.85156	29.41272	487.21613	737.23480	38.77817	573.16742	19.75489	690.08740	-1006.72449	
4399	43.980	-763.00885	-28.60790	-649.08722	809.50372	-23.62927	-642.14575	-680.22845	28.88969	487.41666	737.11377	38.22903	573.36407	19.63776	691.63342	-1005.48444	
4400	43.990	-762.99634	-28.03834	-649.05042	809.51184	-22.87184	-641.74677	-680.47192	28.56489	487.53146	737.05347	37.54514	573.70276	19.64362	692.74591	-1004.23212	
4401	44.000	-763.56995	-26.55972	-648.69897	809.27295	-21.78716	-641.76672	-680.63043	27.93748	487.85269	736.71783	36.80705	573.91022	19.52651	694.14392	-1002.88391	
4402	44.010	-763.59967	-25.92905	-648.51123	808.68732	-20.74474	-641.60553	-681.03699	27.06353	488.13098	736.57611	35.97438	574.10870	18.99792	695.55145	-1001.65771	
4403	44.020	-763.97937	-24.80124	-648.29559	808.57269	-20.17684	-641.29346	-681.01843	26.43588	488.31793	736.50482	35.48697	574.41754	18.66798	696.97833	-1000.47278	
4404	44.030	-764.30432	-24.00252	-648.04120	808.22314	-19.20444	-641.14087	-681.22424	25.85458	488.79401	736.01495	34.63717	574.64349	18.40117	698.50238	-998.94873	
4405	44.040	-764.41992	-23.22866	-647.99951	807.85687	-18.01655	-641.10852	-681.58832	25.28785	489.08533	735.76788	33.89858	574.88324	18.31594	699.92261	-997.88092	
4406	44.050	-764.56165	-22.11615	-647.87732	807.78345	-17.25078	-640.87299	-681.67480	24.69181	489.38480	735.41418	33.08346	575.13422	17.82896	701.47772	-996.62024	
4407	44.060	-764.91101	-21.25700	-647.57263	807.34937	-16.37461	-640.63934	-682.00714	23.91101	489.43292	735.13550	32.32362	575.38184	17.68439	702.80774	-995.50305	
4408	44.070	-765.29761	-20.22919	-647.34912	807.25311	-15.28671	-640.46606	-682.38647	23.26514	489.62479	734.65741	31.51658	575.76910	17.60458	704.21216	-994.25732	
4409	44.080	-765.57275	-19.11284	-647.34094	807.13361	-14.29323	-640.30762	-682.59052	22.75921	489.83731	734.35413	30.71400	576.06067	17.26290	705.86060	-993.04309	
4410	44.090	-766.14069	-18.09890	-646.93695	806.76294	-13.30414	-640.11218	-682.96606	21.95379	490.19019	733.82538	29.87302	576.48145	16.69740	707.22180	-991.92981	
4411	44.100	-766.40289	-17.17013	-646.84381	806.38654	-12.53004	-639.89233	-683.49701	21.34450	490.40109	733.24908	29.03493	576.79236	16.35521	708.79468	-990.89825	
4412	44.110	-766.46173	-16.24254	-646.58319	806.21350	-11.28526	-639.77502	-683.72906	20.73049	490.63553	733.73169	28.45492	576.84363	15.97238	710.36151	-989.63892	
4413	44.120	-766.75629	-15.20659	-646.31299	805.92346	-10.12009	-639.45361	-684.11292	19.96619	490.87357	733.26257	27.50468	577.02759	15.88896	711.87598	-988.38318	
4414	44.130	-767.13434	-14.08935	-646.03961	805.38184	-9.33173	-639.31360	-684.48511	19.21000	491.05835	732.82080	26.76969	577.18689	15.57645	713.38098	-986.92706	
4415	44.140	-767.94861	-12.93959	-645.61456	804.78778	-8.38458	-639.15564	-684.66675	18.64892	491.52258	732.39575	25.88061	577.59106	15.11464	714.95453	-985.80634	
4416	44.150	-768.03998	-12.14028	-645.66290	804.62402	-7.17113	-638.86285	-684.94098	17.95316	491.87585	732.23022	24.97616	577.80408	14.72430	716.53583	-984.24780	
4417	44.160	-768.33752	-10.92624	-645.51709	804.08203	-6.11132	-638.64288	-685.31860	17.20753	491.93765	731.77612	24.17503	578.07074	14.44869	718.22174	-982.69629	
4418	44.170	-768.87634	-9.82561	-645.17841	803.72607	-5.31654	-638.39459	-685.55640	16.21505	492.45795	731.51642	23.48797	578.43427	14.08872	719.51868	-981.30701	
4419	44.180	-769.14355	-8.85626	-645.02826	803.31763	-4.26960	-638.22168	-686.09106	15.79672	492.54886	731.06311	22.59112	578.75323	13.66166	721.19672	-979.99323	
4420	44.190	-769.31567	-7.96280	-644.75726	803.17621	-2.93436	-637.94360	-686.46777	15.23911	492.69287	730.61182	21.55441	578.91998	13.33222	722.85547	-978.44781	
4421	44.200	-769.57471	-6.94325	-644.62970	802.71082	-2.09651	-637.84937	-686.86298	14.31091	492.97321	730.28528	20.94058	579.13293	12.63768	724.40820	-976.81726	
4422	44.210	-770.46631	-5.51121	-644.17383	802.38483	-1.17572	-637.57623	-686.94586	13.51968	493.24484	730.02606	19.98764	579.46283	12.41737	725.89966	-975.69794	
4423	44.220	-770.62866	-4.46602	-644.04816	802.06647	0.08108	-637.33954	-687.59961	12.83318	493.34937	729.64978	19.30695	579.78235	12.08289	727.47321	-974.20526	
4424	44.230	-771.10681	-3.51184	-643.82324	801.77240	1.03956	-637.06458	-687.90112	12.26812	493.67947	729.42218	18.36271	580.07288	12.05966	728.99915	-972.78735	
4425	44.240	-771.36743	-2.72057	-643.67731	800.90387	2.16058	-637.05231	-688.29486	11.57329	493.97205	728.98907	17.46775	580.23090	11.50556	730.69934	-971.53137	
4426	44.250	-771.74567	-1.52948	-643.45477	800.57574	2.87437	-636.87347	-688.76477	10.78447	494.33752	728.62610	16.63807	580.52466	10.82838	732.18555	-970.39783	
4427	44.260	-772.43970	-0.23989	-642.90839	800.34955	4.28517	-636.48602	-688.86102	10.00920	494.50818	728.17371	15.92434	580.88489	10.36081	733.51343	-969.04218	
4428	44.270	-772.82117	0.14524	-642.77112	799.98547	5.19098	-636.22211	-689.34845	9.18136	494.82333	727.80817	15.04415	581.05969	10.28633	735.28223	-967.80145	
4429	44.280	-772.87653	1.51172	-642.71521	799.50653	6.07747	-635.92322	-689.71973	8.71567	495.17560	727.30902	14.14491	581.26379	9.98064	736.61987	-966.32312	
4430	44.290	-773.19501	2.56565	-642.54480	799.07196	7.04724	-635.90771	-690.10577	8.13175	495.40839	727.30579	13.43315	581.50275	9.65696	738.25940	-965.05621	
4431	44.300	-773.48987	3.49894	-642.26678	799.03082	8.32151	-635.50525	-690.62555	7.42659	495.63831	726.73035	12.45795	581.70404	9.12293	739.73785	-963.85114	
4432	44.310	-773.81677	4.38198	-641.94910	798.65100	9.28117	-635.22992	-690.88721	6.67433	495.78198	726.08911	11.75456	581.90997	8.58491	741.30121	-962.35126	
4433	44.320	-774.34137	5.49379	-641.82990	798.11151	10.12065	-635.02039	-691.23590	5.94209	496.04443	725.85577	10.97667	582.22345	8.35238	742.73120	-960.86169	
4434	44.330	-774.90381	6.95876	-641.54346	797.89984	11.10454	-634.92596	-691.55286	5.30094	496.17169	725.54004	10.02609	582.49249	8.11035	744.14368	-959.60419	
4435	44.340	-775.12567	7.56767	-641.33008	797.63031	12.32179	-634.52148	-691.87268	4.68894	496.34006	725.23035	9.24521	582.62738	7.65981	745.38623	-958.35858	
4436	44.350	-775.51416	8.53810	-641.08099	797.33734	12.94315	-634.31653	-692.04749	4.07452	496.58273	724.98474	8.54141	583.03723	7.45407	747.05988	-956.66309	
4437	44.360	-775.61389	9.32520	-640.76996	796.78729	13.96488	-634.06976	-692.47205	3.19343	496.72458	724.64362	7.74615	583.26392	6.95575	748.31482	-955.58838	
4438	44.370	-775.78613	10.43245	-640.86029	796.35010	14.93316	-634.06323	-692.93561	2.59128	496.95303	724.51361	7.06958	583.43304	6.58415	749.95660	-954.23932	
4439	44.380	-776.12732	11.37751	-640.41205	796.23407	15.85187	-633.65570	-693.00885	1.98942	497.44196	724.20880	6.31831	583.52264	6.21493	751.08386	-952.97632	
4440	44.390	-776.65082	12.00486	-640.11121	795.90967	16.69175	-633.24213	-693.39148	1.37819	497.76715	723.83435	5.38028	583.70807	6.47493	752.51599	-951.66559	
4441	44.400	-777.01190	13.03953	-639.80090	795.65094	17.67867	-633.21783	-693.84570	0.79636	497.90619	723.40851	4.74346	583.99982	5.85402	753.77625	-950.45782	
4442	44.410	-777.20691	13.84051	-639.81171	795.13892	18.47543	-633.07965	-694.14050	0.14265	498.00415	723.21100	3.66142	583.80365	5.35448	754.96973	-949.43384	
